<svg id="Layer_1" data-name="Layer 1" xmlns="http://www.w3.org/2000/svg" viewBox="0 0 470.74 384.99"><defs><style>.cls-1{fill:none;stroke:#fff;stroke-miterlimit:10;stroke-width:3.42px;}</style></defs><path class="cls-1" d="M0,11.68V387.59a11.65,11.65,0,0,0,19.89,8.24l188-188a11.65,11.65,0,0,0,0-16.48L19.89,3.44A11.65,11.65,0,0,0,0,11.68Z"/><path class="cls-1" d="M341.06,127.61l-17.62-8.81L305.76,110,117.2,15.69C105.38,9.77,94.4,25,103.75,34.35L242.56,173.16,269,199.63l66.12,66.12a11.64,11.64,0,0,0,13.45,2.18l115.7-57.86a11.65,11.65,0,0,0,0-20.84Z"/><path class="cls-1" d="M117.12,383.66l174.2-87.09a11.66,11.66,0,0,0,3-18.66L250.8,234.35a11.65,11.65,0,0,0-16.48,0L103.67,365C94.32,374.35,105.3,389.57,117.12,383.66Z"/></svg>