<svg id="Layer_1" data-name="Layer 1" xmlns="http://www.w3.org/2000/svg" viewBox="0 0 309.78 106.47"><defs><style>.cls-1{fill:#02101e;}</style></defs><path class="cls-1" d="M13.48,96.35l1.18.25a7,7,0,0,1-6.93,5.15,7.91,7.91,0,0,1,0-15.81,7.07,7.07,0,0,1,6.93,5.37l-1.22.17a5.86,5.86,0,0,0-5.71-4.41c-3.78,0-6.49,2.84-6.49,6.78a6.4,6.4,0,0,0,6.49,6.76A5.86,5.86,0,0,0,13.48,96.35Z"/><path class="cls-1" d="M28.14,96a5.43,5.43,0,0,1-5.57,5.69,5.7,5.7,0,0,1,0-11.4A5.44,5.44,0,0,1,28.14,96ZM27,96a4.41,4.41,0,1,0-4.41,4.62A4.35,4.35,0,0,0,27,96Z"/><path class="cls-1" d="M36.6,101.64A4.88,4.88,0,0,1,32.13,99v7H31V90.66h1.14v2.27a4.92,4.92,0,0,1,4.51-2.69,5.71,5.71,0,0,1,0,11.4ZM40.91,96a4.41,4.41,0,1,0-4.41,4.56A4.35,4.35,0,0,0,40.91,96Z"/><path class="cls-1" d="M43.93,104.56a4.49,4.49,0,0,0,1.32.25c1.54,0,2.13-1.66,3-3.65l-4.88-10.5h1.31l4.15,9.07,3.64-9.07h1.23l-4.3,10.65c-1,2.58-2,4.57-4,4.57a4,4,0,0,1-1.43-.27Z"/><path class="cls-1" d="M57.37,90.66v1.66a3.17,3.17,0,0,1,3-2.06,3.91,3.91,0,0,1,1.53.34v1.11a3.92,3.92,0,0,0-1.59-.38c-1.74,0-2.86,1.58-2.86,3.89v6H56.24V90.66Z"/><path class="cls-1" d="M64.28,87.66a.88.88,0,0,1,1.76,0,.88.88,0,1,1-1.76,0Zm1.45,3v10.56H64.57V90.66Z"/><path class="cls-1" d="M78.68,101.14V99a4.94,4.94,0,0,1-4.45,2.58,5.66,5.66,0,0,1,0-11.32,5,5,0,0,1,4.48,2.58V90.66h1.15v10.48a5.09,5.09,0,0,1-5.35,5.33c-2.8,0-5.09-1.74-5.44-4.14l1.13-.14a4.11,4.11,0,0,0,4.26,3.21A4,4,0,0,0,78.68,101.14Zm0-5.19a4.41,4.41,0,1,0-4.41,4.56A4.37,4.37,0,0,0,78.73,96Z"/><path class="cls-1" d="M84.57,85.83v6.64a4.23,4.23,0,0,1,3.82-2.23c2.66,0,4.34,2,4.34,4.77v6.21H91.58V95c0-2.14-1.26-3.68-3.34-3.68A3.61,3.61,0,0,0,84.57,95v6.23H83.39V85.83Z"/><path class="cls-1" d="M96.85,91.67H95v-1h1.85L97,88.25h1v2.43h2.84v1H98v7.14a1.65,1.65,0,0,0,1.66,1.8,5.12,5.12,0,0,0,1.37-.21v1a5.19,5.19,0,0,1-1.58.23,2.55,2.55,0,0,1-2.6-2.81Z"/><path class="cls-1" d="M109.93,90.56a5.08,5.08,0,0,1,4.94-4.62,4.48,4.48,0,0,1,4.59,4.66c0,2.12-1.07,3.4-3,5.25L112,100.09h7.22v1.13H110v-.78l5.83-5.62c1.41-1.35,2.4-2.54,2.4-4.22a3.33,3.33,0,0,0-3.34-3.53,3.94,3.94,0,0,0-3.78,3.72Z"/><path class="cls-1" d="M122.45,93.85c0-4.58,2.5-7.91,6.09-7.91s6.11,3.33,6.11,7.91-2.5,7.9-6.11,7.9S122.45,98.43,122.45,93.85Zm1.24,0c0,3.93,2,6.76,4.85,6.76s4.87-2.83,4.87-6.76-2-6.78-4.87-6.78S123.69,89.93,123.69,93.85Z"/><path class="cls-1" d="M137.59,90.56a5.06,5.06,0,0,1,4.93-4.62,4.48,4.48,0,0,1,4.6,4.66c0,2.12-1.07,3.4-3,5.25l-4.41,4.24h7.22v1.13h-9.26v-.78l5.84-5.62c1.41-1.35,2.39-2.54,2.39-4.22a3.33,3.33,0,0,0-3.34-3.53,4,4,0,0,0-3.78,3.72Z"/><path class="cls-1" d="M150.06,90.56A5.08,5.08,0,0,1,155,85.94a4.48,4.48,0,0,1,4.59,4.66c0,2.12-1.07,3.4-3,5.25l-4.41,4.24h7.23v1.13h-9.26v-.78L156,94.82c1.41-1.35,2.4-2.54,2.4-4.22A3.33,3.33,0,0,0,155,87.07a3.94,3.94,0,0,0-3.78,3.72Z"/><path class="cls-1" d="M173,87.59h-5.09V86.46h11.4v1.13h-5.08v13.63H173Z"/><path class="cls-1" d="M183,101.22h-1.24V86.46H188c3.09,0,5.23,1.87,5.23,4.56a4.37,4.37,0,0,1-3.8,4.3l3.8,5.9h-1.47l-3.61-5.73-5.23,0Zm0-13.63v6.79h5C190.36,94.38,192,93,192,91s-1.66-3.43-4.05-3.43Z"/><path class="cls-1" d="M196.47,101.22h-1.32l5.67-14.76h1.74l5.67,14.76h-1.3l-1.24-3.17h-8Zm1.58-4.2h7.3l-3.65-9.43Z"/><path class="cls-1" d="M212,86.46v14.76h-1.24V86.46Z"/><path class="cls-1" d="M215.88,101.22V86.46h1.23v13.63h8v1.13Z"/><path class="cls-1" d="M227.66,101.22h-1.33L232,86.46h1.75l5.66,14.76h-1.3l-1.24-3.17h-8Zm1.57-4.2h7.31l-3.65-9.43Z"/><path class="cls-1" d="M251.93,99.69V86.46h1.24v14.76h-1.64L243.15,88v13.21h-1.23V86.46h1.63Z"/><path class="cls-1" d="M257.08,86.46h4.09c5.17,0,8.61,3,8.61,7.39s-3.44,7.37-8.61,7.37h-4.09Zm4.09,1.13h-2.85v12.5h2.85c4.41,0,7.37-2.46,7.37-6.24S265.58,87.59,261.17,87.59Z"/><path class="cls-1" d="M271.55,100.59a.82.82,0,0,1,.86-.86c.58,0,1,.48,1,1.18a3.53,3.53,0,0,1-1.34,2.89l-.55-.46a2.34,2.34,0,0,0,.93-1.89A.82.82,0,0,1,271.55,100.59Z"/><path class="cls-1" d="M283.77,85.83v15.39h-1.16V85.83Z"/><path class="cls-1" d="M288.45,90.66v1.76a4.41,4.41,0,0,1,3.9-2.18c2.69,0,4.27,2,4.27,4.77v6.21h-1.16V95c0-2.14-1.11-3.68-3.19-3.68A3.72,3.72,0,0,0,288.45,95v6.23h-1.18V90.66Z"/><path class="cls-1" d="M309.76,94l-1.13.17a4,4,0,0,0-3.86-2.92,4.66,4.66,0,0,0,0,9.3,3.92,3.92,0,0,0,3.89-2.77l1.15.17a5.05,5.05,0,0,1-5,3.65,5.7,5.7,0,0,1,0-11.4A5,5,0,0,1,309.76,94Z"/><path class="cls-1" d="M0,1.94V64.49a1.94,1.94,0,0,0,3.31,1.37L34.58,34.59a1.94,1.94,0,0,0,0-2.75L3.31.57A1.94,1.94,0,0,0,0,1.94Z"/><path class="cls-1" d="M56.74,21.23l-2.93-1.46-2.94-1.48L19.5,2.61a1.94,1.94,0,0,0-2.24,3.1l23.1,23.1,4.4,4.4,11,11a2,2,0,0,0,2.24.37L77.25,35a1.94,1.94,0,0,0,0-3.47Z"/><path class="cls-1" d="M19.49,63.83l29-14.49a1.93,1.93,0,0,0,.5-3.1L41.73,39A1.93,1.93,0,0,0,39,39L17.25,60.73A1.94,1.94,0,0,0,19.49,63.83Z"/><path class="cls-1" d="M95,25.23h13.34V27.9h-5.32V41.22h-2.68V27.9H95Z"/><path class="cls-1" d="M135.22,41.22l-3.09-5.32h-4.51v5.32H125v-16h8a5.36,5.36,0,0,1,5.33,5.32,5.18,5.18,0,0,1-.95,3A5.12,5.12,0,0,1,135,35.48l3.3,5.74ZM133,27.9h-5.34v5.3l5.34,0a2.66,2.66,0,0,0,1.87-4.54A2.52,2.52,0,0,0,133,27.9Z"/><path class="cls-1" d="M166.57,38.55h-7.36l-1.36,2.67h-3l8-16,8,16h-3Zm-6-2.65h4.7l-2.35-4.7Z"/><path class="cls-1" d="M187.47,25.23h2.65v16h-2.65Z"/><path class="cls-1" d="M206.71,25.23h2.66V38.55h8v2.67H206.71Z"/><path class="cls-1" d="M245.64,38.55h-7.35l-1.36,2.67h-3l8-16,8,16h-3Zm-6-2.65h4.71L242,31.2Z"/><path class="cls-1" d="M266.55,25.21l10.64,9.58V25.21h2.68v16L269.2,31.64V41.2h-2.65Z"/><path class="cls-1" d="M296.46,25.23h5.33a7.61,7.61,0,0,1,3.08.63,8.19,8.19,0,0,1,4.28,4.28,7.69,7.69,0,0,1,.63,3.09,7.61,7.61,0,0,1-.63,3.08,8.31,8.31,0,0,1-1.72,2.55,8,8,0,0,1-2.54,1.73,7.78,7.78,0,0,1-3.1.63h-5.33Zm5.33,13.32a5.18,5.18,0,0,0,2.07-.42A5.07,5.07,0,0,0,305.55,37a5.49,5.49,0,0,0,1.15-1.7,5.36,5.36,0,0,0,0-4.11,5.52,5.52,0,0,0-1.16-1.7,5.32,5.32,0,0,0-1.7-1.15,5.12,5.12,0,0,0-2-.42h-2.68V38.55Z"/></svg>