<?xml version="1.0" encoding="UTF-8" standalone="no"?>
<svg
   id="Layer_1"
   data-name="Layer 1"
   viewBox="0 0 636.5448 66.422858"
   version="1.1"
   sodipodi:docname="copywright.svg"
   width="636.5448"
   height="66.422859"
   inkscape:version="1.2.2 (732a01da63, 2022-12-09, custom)"
   xmlns:inkscape="http://www.inkscape.org/namespaces/inkscape"
   xmlns:sodipodi="http://sodipodi.sourceforge.net/DTD/sodipodi-0.dtd"
   xmlns="http://www.w3.org/2000/svg"
   xmlns:svg="http://www.w3.org/2000/svg">
  <sodipodi:namedview
     id="namedview79"
     pagecolor="#ffffff"
     bordercolor="#000000"
     borderopacity="0.25"
     inkscape:showpageshadow="2"
     inkscape:pageopacity="0.0"
     inkscape:pagecheckerboard="0"
     inkscape:deskcolor="#d1d1d1"
     showgrid="false"
     showguides="true"
     inkscape:zoom="0.98941185"
     inkscape:cx="354.25086"
     inkscape:cy="100.05944"
     inkscape:window-width="1366"
     inkscape:window-height="695"
     inkscape:window-x="0"
     inkscape:window-y="0"
     inkscape:window-maximized="1"
     inkscape:current-layer="Layer_1">
    <sodipodi:guide
       position="416.409,24.984099"
       orientation="0,-1"
       id="guide1281"
       inkscape:locked="false" />
    <sodipodi:guide
       position="78.203025,33.069711"
       orientation="1,0"
       id="guide1283"
       inkscape:locked="false" />
    <sodipodi:guide
       position="94.879599,76.15086"
       orientation="1,0"
       id="guide1285"
       inkscape:locked="false" />
    <sodipodi:guide
       position="309.90633,83.352108"
       orientation="1,0"
       id="guide1348"
       inkscape:locked="false" />
    <sodipodi:guide
       position="326.07756,82.973095"
       orientation="1,0"
       id="guide1350"
       inkscape:locked="false" />
  </sodipodi:namedview>
  <defs
     id="defs4">
    <style
       id="style2">.cls-1{fill:#02101e;}</style>
  </defs>
  <path
     class="cls-1"
     d="m 340.21481,36.188291 1.18,0.25 a 7,7 0 0 1 -6.93,5.15 7.91,7.91 0 0 1 0,-15.81 7.07,7.07 0 0 1 6.93,5.37 l -1.22,0.17 a 5.86,5.86 0 0 0 -5.71,-4.41 c -3.78,0 -6.49,2.84 -6.49,6.78 a 6.4,6.4 0 0 0 6.49,6.76 5.86,5.86 0 0 0 5.75,-4.26 z"
     id="path6"
     style="fill:#f3f9fe;fill-opacity:1" />
  <path
     class="cls-1"
     d="m 354.87481,35.838291 a 5.43,5.43 0 0 1 -5.57,5.69 5.7,5.7 0 0 1 0,-11.4 5.44,5.44 0 0 1 5.57,5.71 z m -1.14,0 a 4.41,4.41 0 1 0 -4.41,4.62 4.35,4.35 0 0 0 4.41,-4.62 z"
     id="path8"
     style="fill:#f3f9fe;fill-opacity:1" />
  <path
     class="cls-1"
     d="m 363.33481,41.478291 a 4.88,4.88 0 0 1 -4.47,-2.64 v 7 h -1.13 v -15.34 h 1.14 v 2.27 a 4.92,4.92 0 0 1 4.51,-2.69 5.71,5.71 0 0 1 0,11.4 z m 4.31,-5.64 a 4.41,4.41 0 1 0 -4.41,4.56 4.35,4.35 0 0 0 4.41,-4.56 z"
     id="path10"
     style="fill:#f3f9fe;fill-opacity:1" />
  <path
     class="cls-1"
     d="m 370.66481,44.398291 a 4.49,4.49 0 0 0 1.32,0.25 c 1.54,0 2.13,-1.66 3,-3.65 l -4.88,-10.5 h 1.31 l 4.15,9.07 3.64,-9.07 h 1.23 l -4.3,10.65 c -1,2.58 -2,4.57 -4,4.57 a 4,4 0 0 1 -1.43,-0.27 z"
     id="path12"
     style="fill:#f3f9fe;fill-opacity:1" />
  <path
     class="cls-1"
     d="m 384.10481,30.498291 v 1.66 a 3.17,3.17 0 0 1 3,-2.06 3.91,3.91 0 0 1 1.53,0.34 v 1.11 a 3.92,3.92 0 0 0 -1.59,-0.38 c -1.74,0 -2.86,1.58 -2.86,3.89 v 6 h -1.21 v -10.56 z"
     id="path14"
     style="fill:#f3f9fe;fill-opacity:1" />
  <path
     class="cls-1"
     d="m 391.01481,27.498291 a 0.88,0.88 0 0 1 1.76,0 0.88,0.88 0 1 1 -1.76,0 z m 1.45,3 v 10.56 h -1.16 v -10.56 z"
     id="path16"
     style="fill:#f3f9fe;fill-opacity:1" />
  <path
     class="cls-1"
     d="m 405.41481,40.978291 v -2.14 a 4.94,4.94 0 0 1 -4.45,2.58 5.66,5.66 0 0 1 0,-11.32 5,5 0 0 1 4.48,2.58 v -2.18 h 1.15 v 10.48 a 5.09,5.09 0 0 1 -5.35,5.33 c -2.8,0 -5.09,-1.74 -5.44,-4.14 l 1.13,-0.14 a 4.11,4.11 0 0 0 4.26,3.21 4,4 0 0 0 4.22,-4.26 z m 0,-5.19 a 4.41,4.41 0 1 0 -4.41,4.56 4.37,4.37 0 0 0 4.46,-4.51 z"
     id="path18"
     style="fill:#f3f9fe;fill-opacity:1" />
  <path
     class="cls-1"
     d="m 411.30481,25.668291 v 6.64 a 4.23,4.23 0 0 1 3.82,-2.23 c 2.66,0 4.34,2 4.34,4.77 v 6.21 h -1.15 v -6.22 c 0,-2.14 -1.26,-3.68 -3.34,-3.68 a 3.61,3.61 0 0 0 -3.67,3.68 v 6.23 h -1.18 v -15.4 z"
     id="path20"
     style="fill:#f3f9fe;fill-opacity:1" />
  <path
     class="cls-1"
     d="m 423.58481,31.508291 h -1.85 v -1 h 1.85 l 0.15,-2.42 h 1 v 2.43 h 2.84 v 1 h -2.84 v 7.14 a 1.65,1.65 0 0 0 1.66,1.8 5.12,5.12 0 0 0 1.37,-0.21 v 1 a 5.19,5.19 0 0 1 -1.58,0.23 2.55,2.55 0 0 1 -2.6,-2.81 z"
     id="path22"
     style="fill:#f3f9fe;fill-opacity:1" />
  <path
     class="cls-1"
     d="m 436.66481,30.398291 a 5.08,5.08 0 0 1 4.94,-4.62 4.48,4.48 0 0 1 4.59,4.66 c 0,2.12 -1.07,3.4 -3,5.25 l -4.46,4.24 h 7.22 v 1.13 h -9.22 v -0.78 l 5.83,-5.62 c 1.41,-1.35 2.4,-2.54 2.4,-4.22 a 3.33,3.33 0 0 0 -3.34,-3.53 3.94,3.94 0 0 0 -3.78,3.72 z"
     id="path24"
     style="fill:#f3f9fe;fill-opacity:1" />
  <path
     class="cls-1"
     d="m 449.18481,33.688291 c 0,-4.58 2.5,-7.91 6.09,-7.91 3.59,0 6.11,3.33 6.11,7.91 0,4.58 -2.5,7.9 -6.11,7.9 -3.61,0 -6.09,-3.32 -6.09,-7.9 z m 1.24,0 c 0,3.93 2,6.76 4.85,6.76 2.85,0 4.87,-2.83 4.87,-6.76 0,-3.93 -2,-6.78 -4.87,-6.78 -2.87,0 -4.85,2.86 -4.85,6.78 z"
     id="path26"
     style="fill:#f3f9fe;fill-opacity:1" />
  <path
     class="cls-1"
     d="m 464.32481,30.398291 a 5.06,5.06 0 0 1 4.93,-4.62 4.48,4.48 0 0 1 4.6,4.66 c 0,2.12 -1.07,3.4 -3,5.25 l -4.41,4.24 h 7.22 v 1.13 h -9.26 v -0.78 l 5.84,-5.62 c 1.41,-1.35 2.39,-2.54 2.39,-4.22 a 3.33,3.33 0 0 0 -3.34,-3.53 4,4 0 0 0 -3.78,3.72 z"
     id="path28"
     style="fill:#f3f9fe;fill-opacity:1" />
  <path
     class="cls-1"
     d="m 476.79481,30.398291 a 5.08,5.08 0 0 1 4.94,-4.62 4.48,4.48 0 0 1 4.59,4.66 c 0,2.12 -1.07,3.4 -3,5.25 l -4.41,4.24 h 7.23 v 1.13 h -9.26 v -0.78 l 5.85,-5.62 c 1.41,-1.35 2.4,-2.54 2.4,-4.22 a 3.33,3.33 0 0 0 -3.4,-3.53 3.94,3.94 0 0 0 -3.78,3.72 z"
     id="path30"
     style="fill:#f3f9fe;fill-opacity:1" />
  <path
     class="cls-1"
     d="m 499.73481,27.428291 h -5.09 v -1.13 h 11.4 v 1.13 h -5.08 v 13.63 h -1.23 z"
     id="path32"
     style="fill:#f3f9fe;fill-opacity:1" />
  <path
     class="cls-1"
     d="m 509.73481,41.058291 h -1.24 v -14.76 h 6.24 c 3.09,0 5.23,1.87 5.23,4.56 a 4.37,4.37 0 0 1 -3.8,4.3 l 3.8,5.9 h -1.47 l -3.61,-5.73 h -5.23 z m 0,-13.63 v 6.79 h 5 c 2.36,0 4,-1.38 4,-3.38 0,-2 -1.66,-3.43 -4.05,-3.43 z"
     id="path34"
     style="fill:#f3f9fe;fill-opacity:1" />
  <path
     class="cls-1"
     d="m 523.20481,41.058291 h -1.32 l 5.67,-14.76 h 1.74 l 5.67,14.76 h -1.3 l -1.24,-3.17 h -8 z m 1.58,-4.2 h 7.3 l -3.65,-9.43 z"
     id="path36"
     style="fill:#f3f9fe;fill-opacity:1" />
  <path
     class="cls-1"
     d="m 538.73481,26.298291 v 14.76 h -1.24 v -14.76 z"
     id="path38"
     style="fill:#f3f9fe;fill-opacity:1" />
  <path
     class="cls-1"
     d="m 542.61481,41.058291 v -14.76 h 1.23 v 13.63 h 8 v 1.13 z"
     id="path40"
     style="fill:#f3f9fe;fill-opacity:1" />
  <path
     class="cls-1"
     d="m 554.39481,41.058291 h -1.33 l 5.67,-14.76 h 1.75 l 5.66,14.76 h -1.3 l -1.24,-3.17 h -8 z m 1.57,-4.2 h 7.31 l -3.65,-9.43 z"
     id="path42"
     style="fill:#f3f9fe;fill-opacity:1" />
  <path
     class="cls-1"
     d="m 578.66481,39.528291 v -13.23 h 1.24 v 14.76 h -1.64 l -8.38,-13.22 v 13.21 h -1.23 v -14.75 h 1.63 z"
     id="path44"
     style="fill:#f3f9fe;fill-opacity:1" />
  <path
     class="cls-1"
     d="m 583.81481,26.298291 h 4.09 c 5.17,0 8.61,3 8.61,7.39 0,4.39 -3.44,7.37 -8.61,7.37 h -4.09 z m 4.09,1.13 h -2.85 v 12.5 h 2.85 c 4.41,0 7.37,-2.46 7.37,-6.24 0,-3.78 -2.96,-6.26 -7.37,-6.26 z"
     id="path46"
     style="fill:#f3f9fe;fill-opacity:1" />
  <path
     class="cls-1"
     d="m 598.28481,40.428291 a 0.82,0.82 0 0 1 0.86,-0.86 c 0.58,0 1,0.48 1,1.18 a 3.53,3.53 0 0 1 -1.34,2.89 l -0.55,-0.46 a 2.34,2.34 0 0 0 0.93,-1.89 0.82,0.82 0 0 1 -0.9,-0.86 z"
     id="path48"
     style="fill:#f3f9fe;fill-opacity:1" />
  <path
     class="cls-1"
     d="m 610.50481,25.668291 v 15.39 h -1.16 v -15.39 z"
     id="path50"
     style="fill:#f3f9fe;fill-opacity:1" />
  <path
     class="cls-1"
     d="m 615.18481,30.498291 v 1.76 a 4.41,4.41 0 0 1 3.9,-2.18 c 2.69,0 4.27,2 4.27,4.77 v 6.21 h -1.16 v -6.22 c 0,-2.14 -1.11,-3.68 -3.19,-3.68 a 3.72,3.72 0 0 0 -3.82,3.68 v 6.23 h -1.18 v -10.57 z"
     id="path52"
     style="fill:#f3f9fe;fill-opacity:1" />
  <path
     class="cls-1"
     d="m 636.49481,33.838291 -1.13,0.17 a 4,4 0 0 0 -3.86,-2.92 4.66,4.66 0 0 0 0,9.3 3.92,3.92 0 0 0 3.89,-2.77 l 1.15,0.17 a 5.05,5.05 0 0 1 -5,3.65 5.7,5.7 0 0 1 0,-11.4 5,5 0 0 1 4.95,3.8 z"
     id="path54"
     style="fill:#f3f9fe;fill-opacity:1" />
  <path
     class="cls-1"
     d="M 0,1.9364313 V 64.486431 a 1.94,1.94 0 0 0 3.31,1.37 l 31.27,-31.27 a 1.94,1.94 0 0 0 0,-2.75 L 3.31,0.56643129 A 1.94,1.94 0 0 0 0,1.9364313 Z"
     id="path56"
     style="fill:#f3f9fe;fill-opacity:1" />
  <path
     class="cls-1"
     d="m 56.74,21.226431 -2.93,-1.46 -2.94,-1.48 L 19.5,2.6064313 a 1.94,1.94 0 0 0 -2.24,3.1 l 23.1,23.0999997 4.4,4.4 11,11 a 2,2 0 0 0 2.24,0.37 l 19.25,-9.58 a 1.94,1.94 0 0 0 0,-3.47 z"
     id="path58"
     style="fill:#f3f9fe;fill-opacity:1" />
  <path
     class="cls-1"
     d="m 19.49,63.826431 29,-14.49 a 1.93,1.93 0 0 0 0.5,-3.1 l -7.26,-7.24 a 1.93,1.93 0 0 0 -2.73,0 l -21.75,21.73 a 1.94,1.94 0 0 0 2.24,3.1 z"
     id="path60"
     style="fill:#f3f9fe;fill-opacity:1" />
  <path
     class="cls-1"
     d="m 95,25.226431 h 13.34 v 2.67 h -5.32 v 13.32 h -2.68 v -13.32 H 95 Z"
     id="path62"
     style="fill:#f3f9fe;fill-opacity:1" />
  <path
     class="cls-1"
     d="m 135.22,41.216431 -3.09,-5.32 h -4.51 v 5.32 H 125 v -16 h 8 a 5.36,5.36 0 0 1 5.33,5.32 5.18,5.18 0 0 1 -0.95,3 5.12,5.12 0 0 1 -2.38,1.94 l 3.3,5.74 z m -2.22,-13.32 h -5.34 v 5.3 H 133 a 2.66,2.66 0 0 0 1.87,-4.54 2.52,2.52 0 0 0 -1.87,-0.76 z"
     id="path64"
     style="fill:#f3f9fe;fill-opacity:1" />
  <path
     class="cls-1"
     d="m 166.57,38.546431 h -7.36 l -1.36,2.67 h -3 l 8,-16 8,16 h -3 z m -6,-2.65 h 4.7 l -2.35,-4.7 z"
     id="path66"
     style="fill:#f3f9fe;fill-opacity:1" />
  <path
     class="cls-1"
     d="m 187.47,25.226431 h 2.65 v 16 h -2.65 z"
     id="path68"
     style="fill:#f3f9fe;fill-opacity:1" />
  <path
     class="cls-1"
     d="m 206.71,25.226431 h 2.66 v 13.32 h 8 v 2.67 h -10.66 z"
     id="path70"
     style="fill:#f3f9fe;fill-opacity:1" />
  <path
     class="cls-1"
     d="m 245.64,38.546431 h -7.35 l -1.36,2.67 h -3 l 8,-16 8,16 h -3 z m -6,-2.65 h 4.71 l -2.35,-4.7 z"
     id="path72"
     style="fill:#f3f9fe;fill-opacity:1" />
  <path
     class="cls-1"
     d="m 266.55,25.206431 10.64,9.58 v -9.58 h 2.68 v 16 l -10.67,-9.57 v 9.56 h -2.65 z"
     id="path74"
     style="fill:#f3f9fe;fill-opacity:1" />
  <path
     class="cls-1"
     d="m 296.46,25.226431 h 5.33 a 7.61,7.61 0 0 1 3.08,0.63 8.19,8.19 0 0 1 4.28,4.28 7.69,7.69 0 0 1 0.63,3.09 7.61,7.61 0 0 1 -0.63,3.08 8.31,8.31 0 0 1 -1.72,2.55 8,8 0 0 1 -2.54,1.73 7.78,7.78 0 0 1 -3.1,0.63 h -5.33 z m 5.33,13.32 a 5.18,5.18 0 0 0 2.07,-0.42 5.07,5.07 0 0 0 1.69,-1.13 5.49,5.49 0 0 0 1.15,-1.7 5.36,5.36 0 0 0 0,-4.11 5.52,5.52 0 0 0 -1.16,-1.7 5.32,5.32 0 0 0 -1.7,-1.15 5.12,5.12 0 0 0 -2,-0.42 h -2.68 v 10.63 z"
     id="path76"
     style="fill:#f3f9fe;fill-opacity:1" />
</svg>
