<svg id="Layer_1" data-name="Layer 1" xmlns="http://www.w3.org/2000/svg" viewBox="0 0 1920 296.78"><defs><style>.cls-1{fill:#fff;}</style></defs><path class="cls-1" d="M493.21,95.33h88.66V113.1H546.5v88.5H528.74V113.1H493.21Z"/><path class="cls-1" d="M760.26,201.6l-20.52-35.37h-30V201.6H692.12V95.33h53.13a35.58,35.58,0,0,1,35.38,35.38,35.72,35.72,0,0,1-21.9,32.76l21.9,38.13Zm-15-88.5H709.73v35.21l35.52.16a17.66,17.66,0,0,0,12.41-30.17A17,17,0,0,0,745.25,113.1Z"/><path class="cls-1" d="M968.5,183.84H919.66l-9,17.76H890.87L944,95.33,997.13,201.6H977.38Zm-40.12-17.61h31.24L944,135Z"/><path class="cls-1" d="M1107.38,95.33H1125V201.6h-17.62Z"/><path class="cls-1" d="M1235.24,95.33h17.61v88.51H1306V201.6h-70.74Z"/><path class="cls-1" d="M1493.86,183.84H1445l-9,17.76h-19.75l53.13-106.27,53.13,106.27h-19.75Zm-40.12-17.61H1485L1469.36,135Z"/><path class="cls-1" d="M1632.74,95.18l70.75,63.7V95.18h17.76V201.6l-70.89-63.7v63.55h-17.62Z"/><path class="cls-1" d="M1831.49,95.33h35.37a50.84,50.84,0,0,1,20.52,4.21A54.47,54.47,0,0,1,1915.79,128a52.11,52.11,0,0,1,0,41,55.27,55.27,0,0,1-11.41,16.92,53.62,53.62,0,0,1-16.92,11.48,51.23,51.23,0,0,1-20.6,4.21h-35.37Zm35.37,88.51a34.85,34.85,0,0,0,25-10.41,36.46,36.46,0,0,0,7.58-11.33,35,35,0,0,0,0-27.26,36.07,36.07,0,0,0-19-19,34.42,34.42,0,0,0-13.64-2.75H1849.1v70.74Z"/><path class="cls-1" d="M0,8.68V288.11a8.66,8.66,0,0,0,14.79,6.12L154.5,154.52a8.67,8.67,0,0,0,0-12.25L14.79,2.55A8.67,8.67,0,0,0,0,8.68Z"/><path class="cls-1" d="M253.52,94.85l-13.1-6.54-13.14-6.57L87.12,11.66c-8.79-4.39-17,6.92-10,13.87L180.3,128.71,200,148.39l49.15,49.15a8.65,8.65,0,0,0,10,1.62l86-43a8.65,8.65,0,0,0,0-15.49Z"/><path class="cls-1" d="M87.06,285.19l129.48-64.74a8.67,8.67,0,0,0,2.26-13.88L186.43,174.2a8.65,8.65,0,0,0-12.25,0L77.06,271.31C70.11,278.26,78.27,289.58,87.06,285.19Z"/></svg>