<svg id="Layer_1" data-name="Layer 1" xmlns="http://www.w3.org/2000/svg" viewBox="0 0 1080 1080"><defs><style>.cls-1{fill:#fff;}</style></defs><path class="cls-1" d="M304.91,513.28h44.65v8.94H331.74V566.8H322.8V522.22H304.91Z"/><path class="cls-1" d="M439.4,566.8,429.07,549H414V566.8h-8.87V513.28h26.76a17.91,17.91,0,0,1,17.82,17.81,18,18,0,0,1-11,16.51l11,19.2Zm-7.56-44.58H414V540l17.89.08a8.91,8.91,0,0,0,0-17.82Z"/><path class="cls-1" d="M544.28,557.85h-24.6l-4.55,8.95h-9.95l26.76-53.52L558.7,566.8h-9.94ZM524.08,549h15.73l-7.87-15.73Z"/><path class="cls-1" d="M614.23,513.28h8.87V566.8h-8.87Z"/><path class="cls-1" d="M678.62,513.28h8.87v44.57h26.76v8.95H678.62Z"/><path class="cls-1" d="M808.87,557.85h-24.6l-4.55,8.95h-10l26.77-53.52L823.3,566.8h-9.95ZM788.67,549H804.4l-7.86-15.73Z"/><path class="cls-1" d="M878.82,513.2l35.63,32.08V513.2h8.95v53.6l-35.71-32.08v32h-8.87Z"/><path class="cls-1" d="M978.92,513.28h17.81a25.48,25.48,0,0,1,10.34,2.12,27.39,27.39,0,0,1,8.52,5.78,27.71,27.71,0,0,1,5.79,8.52,26.25,26.25,0,0,1,0,20.67,28,28,0,0,1-5.75,8.52,27,27,0,0,1-8.52,5.79,25.94,25.94,0,0,1-10.38,2.12H978.92Zm17.81,44.57a17.54,17.54,0,0,0,12.61-5.24,18.34,18.34,0,0,0,3.82-5.71,17.65,17.65,0,0,0,0-13.73,18.12,18.12,0,0,0-9.56-9.56,17.36,17.36,0,0,0-6.87-1.39h-8.94v35.63Z"/><path class="cls-1" d="M56.5,469.63V610.37A4.36,4.36,0,0,0,64,613.45l70.37-70.37a4.36,4.36,0,0,0,0-6.16L64,466.55A4.36,4.36,0,0,0,56.5,469.63Z"/><path class="cls-1" d="M184.19,513l-6.6-3.3L171,506.43l-70.59-35.29a4.36,4.36,0,0,0-5,7l52,52,9.91,9.91L182,564.75a4.37,4.37,0,0,0,5,.82l43.31-21.66a4.36,4.36,0,0,0,0-7.81Z"/><path class="cls-1" d="M100.35,608.89l65.21-32.6a4.37,4.37,0,0,0,1.14-7L150.4,553a4.35,4.35,0,0,0-6.17,0L95.31,601.91A4.36,4.36,0,0,0,100.35,608.89Z"/></svg>