<svg id="Layer_1" data-name="Layer 1" xmlns="http://www.w3.org/2000/svg" viewBox="0 0 1152.31 1080"><defs><style>.cls-1{fill:#fff;}</style></defs><path class="cls-1" d="M612.48,1080c298.23,0,540-241.77,540-540h0c0-298.23-241.77-540-540-540H-.16V1080Zm252-770.27V770.27a14.27,14.27,0,0,1-24.37,10.09L609.87,550.1a14.29,14.29,0,0,1,0-20.19L840.14,299.64A14.27,14.27,0,0,1,864.51,309.73ZM507.61,421.24,721,314.54C735.51,307.3,749,326,737.51,337.41L577.44,497.47a14.27,14.27,0,0,1-20.19,0L503.9,444.11A14.29,14.29,0,0,1,507.61,421.24Zm-211.92,106,141.74-70.88A14.26,14.26,0,0,1,453.91,459l81,81,32.43,32.43L737.41,742.49c11.45,11.45-2,30.11-16.48,22.87l-231-115.5L468.26,639l-21.59-10.79-151-75.49A14.28,14.28,0,0,1,295.69,527.21Z"/></svg>