<svg id="Layer_1" data-name="Layer 1" xmlns="http://www.w3.org/2000/svg" viewBox="0 0 1152.31 1080"><defs><style>.cls-1{fill:#fff;}</style></defs><path class="cls-1" d="M539.67,0C241.44,0-.33,241.77-.33,540h0c0,298.23,241.77,540,540,540h612.64V0Zm-252,770.27V309.73A14.27,14.27,0,0,1,312,299.64L542.28,529.9a14.29,14.29,0,0,1,0,20.19L312,780.36A14.27,14.27,0,0,1,287.64,770.27Zm356.9-111.51L431.12,765.46c-14.48,7.24-27.93-11.42-16.48-22.87L574.71,582.53a14.27,14.27,0,0,1,20.19,0l53.35,53.36A14.29,14.29,0,0,1,644.54,658.76Zm211.92-106L714.72,623.68A14.28,14.28,0,0,1,698.24,621l-81-81L584.8,507.57,414.74,337.51c-11.45-11.45,2-30.11,16.48-22.87l231,115.5L683.89,441l21.59,10.79,151,75.49A14.28,14.28,0,0,1,856.46,552.79Z"/></svg>