<svg id="Layer_1" data-name="Layer 1" xmlns="http://www.w3.org/2000/svg" viewBox="0 0 64.51 10.36"><defs><style>.cls-1{fill:#ffde00;}.cls-2{fill:#02101e;}</style></defs><polygon class="cls-1" points="5.45 0 7.13 3.41 10.9 3.96 8.17 6.61 8.82 10.36 5.45 8.59 2.08 10.36 2.72 6.61 0 3.96 3.77 3.41 5.45 0"/><polygon class="cls-1" points="18.85 0 20.54 3.41 24.3 3.96 21.58 6.61 22.22 10.36 18.85 8.59 15.48 10.36 16.13 6.61 13.4 3.96 17.17 3.41 18.85 0"/><polygon class="cls-1" points="32.25 0 33.94 3.41 37.7 3.96 34.98 6.61 35.62 10.36 32.25 8.59 28.89 10.36 29.53 6.61 26.8 3.96 30.57 3.41 32.25 0"/><polygon class="cls-1" points="45.66 0 47.34 3.41 51.11 3.96 48.38 6.61 49.02 10.36 45.66 8.59 42.29 10.36 42.93 6.61 40.21 3.96 43.97 3.41 45.66 0"/><polygon class="cls-2" points="59.06 0 60.74 3.41 64.51 3.96 61.78 6.61 62.43 10.36 59.06 8.59 55.69 10.36 56.34 6.61 53.61 3.96 57.38 3.41 59.06 0"/></svg>