<svg id="trailand-slogo" data-name="Layer 1" xmlns="http://www.w3.org/2000/svg" viewBox="0 0 268.86 51.97">
    <defs>
        <style>
            .cls-1 {
                fill: white;
            }
        </style>
    </defs>
    <path class="cls-1" d="M26.15,48.5v3.4H25.5V50.55H23.82V51.9h-.65V48.5h.65V50H25.5V48.5Z" />
    <path class="cls-1"
        d="M35.44,52a1.72,1.72,0,0,1-.68-.14,1.79,1.79,0,0,1-.56-.38,2,2,0,0,1-.38-.56A1.75,1.75,0,0,1,34.2,49a1.79,1.79,0,0,1,.56-.38,1.75,1.75,0,0,1,1.37,0,1.68,1.68,0,0,1,.56.38,1.59,1.59,0,0,1,.38.56,1.75,1.75,0,0,1,0,1.37,1.79,1.79,0,0,1-.38.56,1.68,1.68,0,0,1-.56.38A1.74,1.74,0,0,1,35.44,52Zm0-2.92a1.08,1.08,0,0,0-.44.09,1.24,1.24,0,0,0-.35.25,1.31,1.31,0,0,0-.24.37,1.12,1.12,0,0,0-.09.44,1.08,1.08,0,0,0,.09.44,1.18,1.18,0,0,0,.24.37,1.1,1.1,0,0,0,.35.26,1.08,1.08,0,0,0,.44.09,1,1,0,0,0,.43-.09,1.1,1.1,0,0,0,.35-.26,1.18,1.18,0,0,0,.24-.37,1.08,1.08,0,0,0,.09-.44,1.12,1.12,0,0,0-.09-.44,1.31,1.31,0,0,0-.24-.37,1.24,1.24,0,0,0-.35-.25A1,1,0,0,0,35.45,49.05Z" />
    <path class="cls-1" d="M48.18,48.51V51.9h-.65V50.18l-1.06,1.28-1.06-1.28V51.9h-.65V48.51h0l1.67,2,1.67-2Z" />
    <path class="cls-1" d="M56.55,49.08v.85h1.64v.59H56.55v.8H58.4v.58H55.9V48.5h2.5v.58Z" />
    <path class="cls-1"
        d="M76.19,52a1.72,1.72,0,0,1-.68-.14,1.8,1.8,0,0,1-.94-.94,1.75,1.75,0,0,1,0-1.37A1.59,1.59,0,0,1,75,49a1.79,1.79,0,0,1,.56-.38,1.75,1.75,0,0,1,1.37,0,1.79,1.79,0,0,1,.56.38,1.59,1.59,0,0,1,.38.56,1.75,1.75,0,0,1,0,1.37,1.8,1.8,0,0,1-.94.94A1.74,1.74,0,0,1,76.19,52Zm0-2.92a1.07,1.07,0,0,0-.43.09,1.24,1.24,0,0,0-.35.25,1.31,1.31,0,0,0-.24.37,1.12,1.12,0,0,0-.09.44,1.08,1.08,0,0,0,.09.44,1.18,1.18,0,0,0,.24.37,1.1,1.1,0,0,0,.35.26,1.07,1.07,0,0,0,.43.09,1.08,1.08,0,0,0,.44-.09A1.1,1.1,0,0,0,77,51a1.18,1.18,0,0,0,.24-.37,1.08,1.08,0,0,0,.09-.44,1.12,1.12,0,0,0-.09-.44,1.31,1.31,0,0,0-.24-.37,1.24,1.24,0,0,0-.35-.25A1.08,1.08,0,0,0,76.19,49.05Z" />
    <path class="cls-1" d="M86.15,49.08v.84H87.8v.6H86.15V51.9H85.5V48.5H88v.58Z" />
    <path class="cls-1" d="M107.49,48.51V51.9h-.65V50.18l-1.07,1.28-1.06-1.28V51.9h-.65V48.51h0l1.66,2,1.68-2Z" />
    <path class="cls-1"
        d="M116.8,52a1.77,1.77,0,0,1-.69-.14,1.79,1.79,0,0,1-.56-.38,2,2,0,0,1-.38-.56,1.75,1.75,0,0,1,.38-1.93,1.79,1.79,0,0,1,.56-.38,1.61,1.61,0,0,1,.69-.14,1.56,1.56,0,0,1,.68.14A1.68,1.68,0,0,1,118,49a1.59,1.59,0,0,1,.38.56,1.75,1.75,0,0,1,0,1.37,1.79,1.79,0,0,1-.38.56,1.68,1.68,0,0,1-.56.38A1.72,1.72,0,0,1,116.8,52Zm0-2.92a1.08,1.08,0,0,0-.44.09,1.24,1.24,0,0,0-.35.25,1.31,1.31,0,0,0-.24.37,1.11,1.11,0,0,0-.08.44,1.08,1.08,0,0,0,.08.44A1.18,1.18,0,0,0,116,51a1.1,1.1,0,0,0,.35.26,1.08,1.08,0,0,0,.44.09,1,1,0,0,0,.43-.09,1,1,0,0,0,.35-.26,1,1,0,0,0,.24-.37,1.08,1.08,0,0,0,.09-.44,1.18,1.18,0,0,0-.68-1.06A1,1,0,0,0,116.8,49.05Z" />
    <path class="cls-1" d="M128.79,48.51l-1.61,3.39h0l-1.61-3.39h.71l.92,2,.91-2Z" />
    <path class="cls-1" d="M136.9,51.9h-.65V48.51h.65Z" />
    <path class="cls-1" d="M145.36,49.08v.85H147v.59h-1.65v.8h1.85v.58h-2.5V48.5h2.5v.58Z" />
    <path class="cls-1"
        d="M154.72,51.46l.35-.52a4,4,0,0,0,.53.3,1.25,1.25,0,0,0,.57.13.82.82,0,0,0,.28,0,.75.75,0,0,0,.2-.1.37.37,0,0,0,.13-.15.29.29,0,0,0,0-.16.25.25,0,0,0-.06-.17.52.52,0,0,0-.17-.12,1.23,1.23,0,0,0-.25-.08l-.29-.06-.24,0-.28-.07a1.69,1.69,0,0,1-.28-.12,1.14,1.14,0,0,1-.25-.18.68.68,0,0,1-.18-.26.8.8,0,0,1-.07-.36.94.94,0,0,1,.12-.49.92.92,0,0,1,.31-.31,1.26,1.26,0,0,1,.42-.16,2.28,2.28,0,0,1,.44,0,2.09,2.09,0,0,1,.38,0,1.5,1.5,0,0,1,.32.08l.28.13c.09.06.19.12.29.2l-.36.51a2.47,2.47,0,0,0-.47-.26,1.18,1.18,0,0,0-.46-.09l-.2,0a.76.76,0,0,0-.2.06.61.61,0,0,0-.16.12.28.28,0,0,0-.06.18.25.25,0,0,0,.08.17.68.68,0,0,0,.19.11.92.92,0,0,0,.25.08l.27.07.23,0,.28.07a2,2,0,0,1,.28.11,1.44,1.44,0,0,1,.25.18.73.73,0,0,1,.17.27.94.94,0,0,1,.07.39,1.11,1.11,0,0,1-.09.46.84.84,0,0,1-.27.32,1,1,0,0,1-.41.19,1.68,1.68,0,0,1-.52.07,2.23,2.23,0,0,1-.47,0,2,2,0,0,1-.37-.11,1.51,1.51,0,0,1-.31-.16Z" />
    <path class="cls-1" d="M176,49.08h-1V51.9h-.65V49.08h-1V48.5H176Z" />
    <path class="cls-1"
        d="M184.05,51.9h-.65V48.5H185a1.28,1.28,0,0,1,.48.09,1.31,1.31,0,0,1,.37.24,1.18,1.18,0,0,1,.24.37,1.45,1.45,0,0,1,.08.47,1.2,1.2,0,0,1-.19.68,1.06,1.06,0,0,1-.52.41l.85,1.14h-.77c-.14-.17-.27-.35-.4-.53l-.39-.55h-.65Zm0-1.66h.9l.18,0a.45.45,0,0,0,.17-.11.47.47,0,0,0,.12-.18.49.49,0,0,0,.05-.25.52.52,0,0,0,0-.17.48.48,0,0,0-.07-.2.61.61,0,0,0-.16-.16.54.54,0,0,0-.27-.06h-.9Z" />
    <path class="cls-1" d="M193.32,51.9l1.74-3.39h.07l1.74,3.39h-.71l-.27-.53h-1.6l-.26.53Zm1.29-1.1h1l-.48-1Z" />
    <path class="cls-1" d="M205,51.9h-.65V48.51H205Z" />
    <path class="cls-1" d="M215.23,51.33v.57h-2.44V48.5h.65v2.83Z" />
    <path class="cls-1" d="M223.26,49.08v.85h1.65v.59h-1.65v.8h1.86v.58h-2.51V48.5h2.51v.58Z" />
    <path class="cls-1"
        d="M233.41,51.9h-.65V48.5h1.54a1.21,1.21,0,0,1,.48.09,1.06,1.06,0,0,1,.61.61,1.23,1.23,0,0,1,.09.47,1.21,1.21,0,0,1-.2.68,1.08,1.08,0,0,1-.51.41l.85,1.14h-.78c-.14-.17-.27-.35-.4-.53l-.39-.55h-.64Zm0-1.66h.89l.19,0a.42.42,0,0,0,.16-.11.64.64,0,0,0,.13-.18.62.62,0,0,0,.05-.25,1.11,1.11,0,0,0,0-.17.7.7,0,0,0-.08-.2.56.56,0,0,0-.15-.16.55.55,0,0,0-.28-.06h-.89Z" />
    <path class="cls-1"
        d="M242.94,51.46l.35-.52a4,4,0,0,0,.53.3,1.25,1.25,0,0,0,.57.13.82.82,0,0,0,.28,0,.75.75,0,0,0,.2-.1.37.37,0,0,0,.13-.15.29.29,0,0,0,0-.16.25.25,0,0,0-.06-.17.52.52,0,0,0-.17-.12,1.23,1.23,0,0,0-.25-.08l-.29-.06-.24,0-.28-.07a1.69,1.69,0,0,1-.28-.12,1.14,1.14,0,0,1-.25-.18.68.68,0,0,1-.18-.26.8.8,0,0,1-.07-.36.94.94,0,0,1,.12-.49.92.92,0,0,1,.31-.31,1.26,1.26,0,0,1,.42-.16,2.28,2.28,0,0,1,.44,0,2.09,2.09,0,0,1,.38,0,1.5,1.5,0,0,1,.32.08l.28.13c.09.06.19.12.29.2l-.36.51a2.76,2.76,0,0,0-.46-.26,1.27,1.27,0,0,0-.47-.09l-.19,0a.73.73,0,0,0-.21.06.61.61,0,0,0-.16.12.28.28,0,0,0-.06.18.25.25,0,0,0,.08.17.68.68,0,0,0,.19.11.92.92,0,0,0,.25.08l.27.07.23,0,.28.07a2,2,0,0,1,.28.11,1.44,1.44,0,0,1,.25.18.73.73,0,0,1,.17.27.94.94,0,0,1,.07.39,1.11,1.11,0,0,1-.09.46.76.76,0,0,1-.27.32,1,1,0,0,1-.41.19,1.68,1.68,0,0,1-.52.07,2.23,2.23,0,0,1-.47,0,2,2,0,0,1-.37-.11,1.51,1.51,0,0,1-.31-.16Z" />
    <path class="cls-1" d="M28.26,6.22H17.69V37H10.62V6.22H0V0H28.26Z" />
    <path class="cls-1"
        d="M40.19,37H33.11V0H49.93a14,14,0,0,1,5.19.93,11.74,11.74,0,0,1,4,2.63,11.87,11.87,0,0,1,2.61,4.05,13.65,13.65,0,0,1,.94,5.13A12.85,12.85,0,0,1,60.59,20a11.73,11.73,0,0,1-5.6,4.5Q59.66,30.69,64.21,37H55.76q-2.22-2.88-4.33-5.82t-4.23-6h-7Zm0-18h9.73a5.83,5.83,0,0,0,2-.38,5.17,5.17,0,0,0,1.84-1.16,6.46,6.46,0,0,0,1.33-2,6.61,6.61,0,0,0,.53-2.73,11.38,11.38,0,0,0-.2-1.92,6,6,0,0,0-.81-2.12,5.11,5.11,0,0,0-1.71-1.72,5.4,5.4,0,0,0-3-.71H40.19Z" />
    <path class="cls-1" d="M65.22,37,84.13,0h.7l18.91,37H96.06l-2.88-5.82H75.73L72.9,37Zm14-12H89.74L84.48,13.8Z" />
    <path class="cls-1" d="M116.18,37H109.1V0h7.08Z" />
    <path class="cls-1" d="M151.92,30.69V37H125.28V0h7.08V30.69Z" />
    <path class="cls-1"
        d="M152.63,37,171.54,0h.7l18.91,37h-7.68l-2.88-5.82H163.14L160.31,37Zm14-12h10.57L171.89,13.8Z" />
    <path class="cls-1" d="M226.9,37,202.58,15V37H195.5V0h.76l24.32,22.35V0h7.07V37Z" />
    <path class="cls-1"
        d="M250.33,37H235.74V0h14.59q7.92,0,13,4.65a16,16,0,0,1,4.11,6,21.32,21.32,0,0,1,1.39,7.86,21.54,21.54,0,0,1-1.39,7.92,16,16,0,0,1-4.11,6,16.54,16.54,0,0,1-5.79,3.43A21.52,21.52,0,0,1,250.33,37Zm-7.51-6.27h7.53a17.8,17.8,0,0,0,4-.46A8.77,8.77,0,0,0,258,28.44a9.82,9.82,0,0,0,2.71-3.72,15.33,15.33,0,0,0,1.06-6.22,15.53,15.53,0,0,0-1.06-6.24A9.59,9.59,0,0,0,258,8.54a9.35,9.35,0,0,0-3.69-1.77,18.2,18.2,0,0,0-4-.45h-7.53Z" />
</svg>