<svg id="trailand-slogo" xmlns="http://www.w3.org/2000/svg" viewBox="0 0 268.86 51.97"><defs><style>.cls-1{fill:#fff;}.cls-2{opacity:0.75;}.cls-3{fill:none;stroke:#fff;stroke-miterlimit:10;stroke-width:0.22px;}</style></defs><path class="cls-1" d="M26.21,48.48v3.4h-.65V50.53H23.88v1.35h-.65v-3.4h.65V50h1.68v-1.5Z"/><path class="cls-1" d="M35.5,52a1.8,1.8,0,0,1-.68-.14,2.06,2.06,0,0,1-.56-.38,2.21,2.21,0,0,1-.38-.56A1.77,1.77,0,0,1,34.26,49a2.06,2.06,0,0,1,.56-.38,1.72,1.72,0,0,1,1.37,0,1.59,1.59,0,0,1,.56.38,1.51,1.51,0,0,1,.38.56,1.72,1.72,0,0,1,0,1.37,1.51,1.51,0,0,1-.38.56,1.59,1.59,0,0,1-.56.38A1.77,1.77,0,0,1,35.5,52Zm0-2.92a1.12,1.12,0,0,0-.44.09,1.4,1.4,0,0,0-.35.25,1.31,1.31,0,0,0-.24.37,1.33,1.33,0,0,0-.09.44,1.12,1.12,0,0,0,.09.44,1.31,1.31,0,0,0,.24.37,1.1,1.1,0,0,0,.35.26,1.12,1.12,0,0,0,.44.09,1,1,0,0,0,.43-.09.92.92,0,0,0,.35-.26,1,1,0,0,0,.24-.37.85.85,0,0,0,.09-.44,1.12,1.12,0,0,0-.09-.44,1,1,0,0,0-.24-.37,1.12,1.12,0,0,0-.35-.25,1,1,0,0,0-.42-.12Z"/><path class="cls-1" d="M48.24,48.49v3.39h-.65V50.16l-1.06,1.28-1.06-1.28v1.72h-.65V48.49h0l1.67,2,1.67-2Z"/><path class="cls-1" d="M56.61,49.06v.85h1.64v.59H56.61v.8h1.85v.58H56v-3.4h2.5v.58Z"/><path class="cls-1" d="M76.25,52a1.8,1.8,0,0,1-.68-.14,1.83,1.83,0,0,1-.94-.94,1.81,1.81,0,0,1,0-1.37,1.78,1.78,0,0,1,.43-.55,2.06,2.06,0,0,1,.56-.38,1.72,1.72,0,0,1,1.37,0,1.79,1.79,0,0,1,.56.38,1.51,1.51,0,0,1,.38.56,1.72,1.72,0,0,1,0,1.37,1.77,1.77,0,0,1-.94.94A1.68,1.68,0,0,1,76.25,52Zm0-2.92a1.11,1.11,0,0,0-.43.09,1.4,1.4,0,0,0-.35.25,1.31,1.31,0,0,0-.24.37,1.33,1.33,0,0,0-.09.44,1.12,1.12,0,0,0,.09.44,1.31,1.31,0,0,0,.24.37,1,1,0,0,0,.78.35,1,1,0,0,0,.44-.09,1.47,1.47,0,0,0,.61-.67.85.85,0,0,0,.09-.44,1.12,1.12,0,0,0-.09-.44,1,1,0,0,0-.24-.37,1.12,1.12,0,0,0-.35-.25,1,1,0,0,0-.46-.08Z"/><path class="cls-1" d="M86.21,49.06v.84h1.65v.6H86.21v1.38h-.65v-3.4h2.5v.58Z"/><path class="cls-1" d="M107.55,48.49v3.39h-.65V50.16l-1.07,1.28-1.06-1.28v1.72h-.65V48.49h0l1.66,2,1.68-2Z"/><path class="cls-1" d="M116.86,52a1.85,1.85,0,0,1-.69-.14,2.06,2.06,0,0,1-.56-.38,2.21,2.21,0,0,1-.38-.56,1.75,1.75,0,0,1,.38-1.93,2.06,2.06,0,0,1,.56-.38,1.53,1.53,0,0,1,.69-.14,1.43,1.43,0,0,1,.68.14,1.55,1.55,0,0,1,.52.39,1.51,1.51,0,0,1,.38.56,1.72,1.72,0,0,1,0,1.37,1.64,1.64,0,0,1-.38.56,1.59,1.59,0,0,1-.56.38A1.74,1.74,0,0,1,116.86,52Zm0-2.92a1.12,1.12,0,0,0-.44.09,1.4,1.4,0,0,0-.35.25,1.21,1.21,0,0,0-.24,1.25,1.5,1.5,0,0,0,.23.33,1.1,1.1,0,0,0,.35.26,1.12,1.12,0,0,0,.44.09,1,1,0,0,0,.43-.09,1.24,1.24,0,0,0,.59-.63.85.85,0,0,0,.09-.44,1.15,1.15,0,0,0-.68-1.06,1,1,0,0,0-.42-.08Z"/><path class="cls-1" d="M128.85,48.49l-1.61,3.39h0l-1.61-3.39h.71l.92,2,.91-2Z"/><path class="cls-1" d="M137,51.88h-.65V48.49H137Z"/><path class="cls-1" d="M145.42,49.06v.85h1.64v.59h-1.65v.8h1.85v.58h-2.5v-3.4h2.5v.58Z"/><path class="cls-1" d="M154.78,51.44l.35-.52a5.54,5.54,0,0,0,.53.3,1.28,1.28,0,0,0,.57.13.66.66,0,0,0,.28,0,.63.63,0,0,0,.2-.1.31.31,0,0,0,.13-.15.22.22,0,0,0,0-.16.19.19,0,0,0-.06-.17.43.43,0,0,0-.17-.12,1,1,0,0,0-.25-.08l-.29-.06h-.24l-.28-.07a1.69,1.69,0,0,1-.28-.12,1.44,1.44,0,0,1-.25-.18.81.81,0,0,1-.18-.26.89.89,0,0,1-.07-.36,1,1,0,0,1,.12-.49,1,1,0,0,1,.31-.31,1.35,1.35,0,0,1,.42-.16,3.23,3.23,0,0,1,.44,0,2.41,2.41,0,0,1,.38,0,1.16,1.16,0,0,1,.32.08l.28.13c.09.06.19.12.29.2l-.36.51a2.37,2.37,0,0,0-.47-.26,1.18,1.18,0,0,0-.46-.09h-.2l-.2.06a.83.83,0,0,0-.16.12.28.28,0,0,0-.06.18.34.34,0,0,0,.08.17.93.93,0,0,0,.19.11,1.21,1.21,0,0,0,.25.08l.27.07h.23l.28.07.28.11a1.14,1.14,0,0,1,.25.18.65.65,0,0,1,.17.27.75.75,0,0,1,.07.39.93.93,0,0,1-.09.46.76.76,0,0,1-.27.32,1,1,0,0,1-.41.19,1.77,1.77,0,0,1-.52.07,1.85,1.85,0,0,1-.47,0,2.59,2.59,0,0,1-.37-.11,2.29,2.29,0,0,1-.31-.16Z"/><path class="cls-1" d="M176.06,49.06h-1v2.82h-.65V49.06h-1v-.58h2.65Z"/><path class="cls-1" d="M184.11,51.88h-.65v-3.4h1.6a1.28,1.28,0,0,1,.48.09,1.18,1.18,0,0,1,.37.24,1,1,0,0,1,.24.37,1.26,1.26,0,0,1,.08.47,1.17,1.17,0,0,1-.19.68,1,1,0,0,1-.52.41l.85,1.14h-.77c-.14-.17-.27-.35-.4-.53l-.39-.55h-.65Zm0-1.66h1.08a.34.34,0,0,0,.17-.11.36.36,0,0,0,.12-.18.43.43,0,0,0,.05-.25.49.49,0,0,0,0-.17.37.37,0,0,0-.07-.2.49.49,0,0,0-.16-.16.6.6,0,0,0-.27-.06h-.9Z"/><path class="cls-1" d="M193.38,51.88l1.74-3.39h.07l1.74,3.39h-.71l-.27-.53h-1.6l-.26.53Zm1.29-1.1h1l-.48-1Z"/><path class="cls-1" d="M205.06,51.88h-.65V48.49h.65Z"/><path class="cls-1" d="M215.29,51.31v.57h-2.44v-3.4h.65v2.83Z"/><path class="cls-1" d="M223.32,49.06v.85H225v.59h-1.65v.8h1.86v.58h-2.51v-3.4h2.51v.58Z"/><path class="cls-1" d="M233.47,51.88h-.65v-3.4h1.54a1.28,1.28,0,0,1,.48.09,1,1,0,0,1,.61.61,1,1,0,0,1,.09.47,1.11,1.11,0,0,1-.2.68,1,1,0,0,1-.51.41l.85,1.14h-.78c-.14-.17-.27-.35-.4-.53l-.39-.55h-.64Zm0-1.66h1.08a.31.31,0,0,0,.16-.11.46.46,0,0,0,.13-.18.43.43,0,0,0,0-.25.49.49,0,0,0,0-.17.5.5,0,0,0-.08-.2.46.46,0,0,0-.15-.16.45.45,0,0,0-.28-.06h-.89Z"/><path class="cls-1" d="M243,51.44l.35-.52a5.54,5.54,0,0,0,.53.3,1.28,1.28,0,0,0,.57.13.66.66,0,0,0,.28,0,.63.63,0,0,0,.2-.1.31.31,0,0,0,.13-.15.22.22,0,0,0,0-.16.19.19,0,0,0-.06-.17.43.43,0,0,0-.17-.12,1,1,0,0,0-.25-.08l-.29-.06h-.24l-.28-.07a1.69,1.69,0,0,1-.28-.12,1.44,1.44,0,0,1-.25-.18.81.81,0,0,1-.18-.26.89.89,0,0,1-.07-.36,1,1,0,0,1,.12-.49,1,1,0,0,1,.31-.31,1.35,1.35,0,0,1,.42-.16,3.23,3.23,0,0,1,.44,0,2.41,2.41,0,0,1,.38,0,1.16,1.16,0,0,1,.32.08l.28.13c.09.06.19.12.29.2l-.36.51a2.28,2.28,0,0,0-.46-.26,1.19,1.19,0,0,0-.47-.09h-.19a.58.58,0,0,0-.37.18.28.28,0,0,0-.06.18.34.34,0,0,0,.08.17.93.93,0,0,0,.19.11,1.21,1.21,0,0,0,.25.08l.27.07h.23l.28.07.28.11a1.14,1.14,0,0,1,.25.18.65.65,0,0,1,.17.27.75.75,0,0,1,.07.39.93.93,0,0,1-.09.46.7.7,0,0,1-.27.32,1,1,0,0,1-.41.19,1.77,1.77,0,0,1-.52.07,1.85,1.85,0,0,1-.47,0,2.59,2.59,0,0,1-.37-.11,2.29,2.29,0,0,1-.31-.16Z"/><path class="cls-1" d="M28.32,6.2H17.75V37H10.68V6.2H.06V0H28.32Z"/><path class="cls-1" d="M40.25,37H33.17V0H50a13.9,13.9,0,0,1,5.19.93,11.65,11.65,0,0,1,4,2.63,11.84,11.84,0,0,1,2.61,4.05,13.41,13.41,0,0,1,.94,5.13A12.82,12.82,0,0,1,60.65,20a11.7,11.7,0,0,1-5.6,4.5q4.68,6.19,9.22,12.5H55.82q-2.22-2.88-4.33-5.82t-4.23-6h-7Zm0-18H50a5.87,5.87,0,0,0,2-.38,5.14,5.14,0,0,0,1.84-1.16,6.36,6.36,0,0,0,1.33-2,6.55,6.55,0,0,0,.53-2.73,10.25,10.25,0,0,0-.2-1.92,5.83,5.83,0,0,0-.81-2.12A5.11,5.11,0,0,0,53,7a5.4,5.4,0,0,0-3-.71H40.25Z"/><path class="cls-1" d="M65.28,37,84.19,0h.7L103.8,37H96.12l-2.88-5.82H75.79L73,37Zm14-12H89.8l-5.26-11.2Z"/><path class="cls-1" d="M116.24,37h-7.08V0h7.08Z"/><path class="cls-1" d="M152,30.67V37H125.34V0h7.08V30.67Z"/><path class="cls-1" d="M152.69,37,171.6,0h.7l18.91,37h-7.68l-2.88-5.82H163.2L160.37,37Zm14-12h10.57L172,13.78Z"/><path class="cls-1" d="M227,37,202.64,15V37h-7.08V0h.76l24.32,22.35V0h7.07V37Z"/><path class="cls-1" d="M250.39,37H235.8V0h14.59q7.92,0,13,4.65a15.91,15.91,0,0,1,4.11,6,21.13,21.13,0,0,1,1.39,7.86,21.44,21.44,0,0,1-1.39,7.92,15.91,15.91,0,0,1-4.11,6,16.51,16.51,0,0,1-5.79,3.43A21.51,21.51,0,0,1,250.39,37Zm-7.51-6.27h7.53a17.91,17.91,0,0,0,4-.46,8.75,8.75,0,0,0,3.65-1.83,9.7,9.7,0,0,0,2.71-3.72,15.06,15.06,0,0,0,1.06-6.22,15.46,15.46,0,0,0-1.06-6.24,9.43,9.43,0,0,0-2.71-3.72,9.23,9.23,0,0,0-3.69-1.77,17.91,17.91,0,0,0-4-.45h-7.53Z"/><g class="cls-2"><path class="cls-3" d="M12.16,46.76H4.22V5.21H23.09a15.67,15.67,0,0,1,5.83,1,13.12,13.12,0,0,1,4.52,3,13.76,13.76,0,0,1,2.93,4.54,15.46,15.46,0,0,1,1.05,5.77,14.41,14.41,0,0,1-2.36,8.22,13.26,13.26,0,0,1-6.28,5.06q5.24,6.91,10.34,14H29.64c-1.66-2.16-3.28-4.33-4.86-6.53S21.61,35.8,20,33.53H12.16Zm0-20.26H23.08a6.52,6.52,0,0,0,2.23-.43,5.65,5.65,0,0,0,2.07-1.31,7.14,7.14,0,0,0,1.5-2.18,7.42,7.42,0,0,0,.59-3.06,12.32,12.32,0,0,0-.22-2.16A7.42,7.42,0,0,0,28.34,15a5.87,5.87,0,0,0-1.92-1.92,6.16,6.16,0,0,0-3.34-.8H12.16Z"/><path class="cls-3" d="M40.26,46.76,61.48,5.27h.8L83.5,46.76H74.88l-3.24-6.53H52.06l-3.18,6.53ZM55.92,33.31H67.78l-5.9-12.55Z"/><path class="cls-3" d="M97.46,46.76H89.52V5.27h7.94Z"/><path class="cls-3" d="M137.59,39.72v7H107.68V5.21h7.94V39.72Z"/><path class="cls-3" d="M138.38,46.76,159.61,5.27h.79l21.23,41.49H173l-3.23-6.53H150.19L147,46.76Zm15.67-13.45h11.86L160,20.76Z"/><path class="cls-3" d="M221.76,46.76l-27.3-24.69V46.76h-8V5.27h.85l27.3,25.09V5.27h8V46.76Z"/><path class="cls-3" d="M248.06,46.76H231.69V5.21h16.37q8.9,0,14.62,5.22a17.86,17.86,0,0,1,4.62,6.73A23.82,23.82,0,0,1,268.86,26a24,24,0,0,1-1.56,8.88,17.75,17.75,0,0,1-4.62,6.72,18.4,18.4,0,0,1-6.49,3.86A24.32,24.32,0,0,1,248.06,46.76Zm-8.43-7h8.46a20.39,20.39,0,0,0,4.48-.51,9.82,9.82,0,0,0,4.12-2,11,11,0,0,0,3-4.17,17.18,17.18,0,0,0,1.19-7,17.43,17.43,0,0,0-1.19-7,10.69,10.69,0,0,0-3.06-4.17,10.44,10.44,0,0,0-4.15-2,20.07,20.07,0,0,0-4.42-.51h-8.46Z"/></g></svg>