<svg id="Layer_1" data-name="Layer 1" xmlns="http://www.w3.org/2000/svg" viewBox="0 0 268.27 65.35"><defs><style>.cls-1{fill:#7a0206;}.cls-2{fill:#fff;}</style></defs><rect class="cls-1" x="41.65" y="14.51" width="226.62" height="36.33" rx="15.39"/><path class="cls-2" d="M96.31,34.26l-1.8,3.89H92.44l-5-10.93h3.15l3.1,6.69,2.08-4.55h1.21L99,33.91l3.11-6.69h3.15l-5.06,10.93H98.14Z"/><path class="cls-2" d="M104.78,38.15l5.1-10.93h1.3l5.14,10.93h-2.87l-.67-1.43h-4.47l-.66,1.43Zm4.65-3.85h2.23l-1.11-2.4Z"/><path class="cls-2" d="M116.82,27.2h8.62v2.86h-2.9v8.09h-2.87V30.06h-2.85Z"/><path class="cls-2" d="M133.88,30.83a2.54,2.54,0,0,0-1.83-.71,2.57,2.57,0,1,0,1.83,4.4l2,2a5.46,5.46,0,1,1-3.87-9.31,5.39,5.39,0,0,1,3.84,1.59Z"/><path class="cls-2" d="M141,27.22v3.89h3.47V27.22h2.87V38.15h-2.87V34H141v4.17h-2.87V27.22Z"/><path class="cls-2" d="M155.86,27.2h8.62v2.86h-2.9v8.09h-2.87V30.06h-2.85Z"/><path class="cls-2" d="M172.81,38.15l-1.69-2.9h-1.78v2.9h-2.87V27.22h4.6a4,4,0,0,1,2.73,7l2.31,4Zm-3.47-5.38h1.78a1.57,1.57,0,1,0,0-3.13h-1.78Z"/><path class="cls-2" d="M177.1,38.15l5.1-10.93h1.29l5.15,10.93h-2.87l-.67-1.43h-4.48L180,38.15Zm4.65-3.85H184l-1.11-2.4Z"/><path class="cls-2" d="M190.09,27.22H193V38.15h-2.87Z"/><path class="cls-2" d="M195.16,27.22H198v8H202v2.89h-6.81Z"/><path class="cls-2" d="M204,27.22h6.79v2.37H206.9v1.78h3.47v2.42H206.9v2h3.92v2.35H204Z"/><path class="cls-2" d="M219.22,38.15l-1.69-2.9h-1.78v2.9h-2.87V27.22h4.61a4,4,0,0,1,2.72,7l2.32,4Zm-3.47-5.38h1.78a1.57,1.57,0,1,0,0-3.13h-1.78Z"/><circle class="cls-2" cx="32.68" cy="32.68" r="32.68"/><path class="cls-1" d="M16.67,19.89V45.46A.79.79,0,0,0,18,46L30.8,33.24a.79.79,0,0,0,0-1.12L18,19.33A.79.79,0,0,0,16.67,19.89Z"/><path class="cls-1" d="M39.87,27.78l-1.2-.6-1.21-.6L24.64,20.16a.79.79,0,0,0-.92,1.27l9.45,9.45,1.8,1.8,4.49,4.49a.79.79,0,0,0,.92.15l7.87-3.93a.8.8,0,0,0,0-1.42Z"/><path class="cls-1" d="M24.63,45.19l11.85-5.92A.79.79,0,0,0,36.69,38l-3-3a.8.8,0,0,0-1.13,0l-8.88,8.89A.79.79,0,0,0,24.63,45.19Z"/></svg>